<svg xmlns="http://www.w3.org/2000/svg" xmlns:xlink="http://www.w3.org/1999/xlink" width="500" zoomAndPan="magnify" viewBox="0 0 375 374.999991" height="500" preserveAspectRatio="xMidYMid meet" version="1.0"><defs><clipPath id="a6d9de4df3"><path d="M 229.609375 3.351562 L 273.582031 3.351562 L 273.582031 47.324219 L 229.609375 47.324219 Z M 229.609375 3.351562 " clip-rule="nonzero"/></clipPath><clipPath id="51f097cce3"><path d="M 251.59375 3.351562 C 239.453125 3.351562 229.609375 13.195312 229.609375 25.339844 C 229.609375 37.480469 239.453125 47.324219 251.59375 47.324219 C 263.738281 47.324219 273.582031 37.480469 273.582031 25.339844 C 273.582031 13.195312 263.738281 3.351562 251.59375 3.351562 Z M 251.59375 3.351562 " clip-rule="nonzero"/></clipPath><clipPath id="b3ad32257d"><path d="M 36.535156 117.992188 L 75.363281 117.992188 L 75.363281 156.816406 L 36.535156 156.816406 Z M 36.535156 117.992188 " clip-rule="nonzero"/></clipPath><clipPath id="70ca7556d3"><path d="M 55.949219 117.992188 C 45.226562 117.992188 36.535156 126.683594 36.535156 137.40625 C 36.535156 148.125 45.226562 156.816406 55.949219 156.816406 C 66.671875 156.816406 75.363281 148.125 75.363281 137.40625 C 75.363281 126.683594 66.671875 117.992188 55.949219 117.992188 Z M 55.949219 117.992188 " clip-rule="nonzero"/></clipPath><clipPath id="241f0e5207"><path d="M 254.972656 345.441406 L 278.925781 345.441406 L 278.925781 369.398438 L 254.972656 369.398438 Z M 254.972656 345.441406 " clip-rule="nonzero"/></clipPath><clipPath id="d76afdab61"><path d="M 266.949219 345.441406 C 260.332031 345.441406 254.972656 350.804688 254.972656 357.421875 C 254.972656 364.035156 260.332031 369.398438 266.949219 369.398438 C 273.5625 369.398438 278.925781 364.035156 278.925781 357.421875 C 278.925781 350.804688 273.5625 345.441406 266.949219 345.441406 Z M 266.949219 345.441406 " clip-rule="nonzero"/></clipPath><clipPath id="16f155c8a7"><path d="M 146.84375 354.628906 L 163.863281 354.628906 L 163.863281 371.648438 L 146.84375 371.648438 Z M 146.84375 354.628906 " clip-rule="nonzero"/></clipPath><clipPath id="654305ad37"><path d="M 155.351562 354.628906 C 150.652344 354.628906 146.84375 358.4375 146.84375 363.136719 C 146.84375 367.839844 150.652344 371.648438 155.351562 371.648438 C 160.050781 371.648438 163.863281 367.839844 163.863281 363.136719 C 163.863281 358.4375 160.050781 354.628906 155.351562 354.628906 Z M 155.351562 354.628906 " clip-rule="nonzero"/></clipPath><clipPath id="c6fde2f8fd"><path d="M 264.542969 61.929688 L 286.40625 61.929688 L 286.40625 83.796875 L 264.542969 83.796875 Z M 264.542969 61.929688 " clip-rule="nonzero"/></clipPath><clipPath id="5c4e473198"><path d="M 275.476562 61.929688 C 269.4375 61.929688 264.542969 66.824219 264.542969 72.863281 C 264.542969 78.902344 269.4375 83.796875 275.476562 83.796875 C 281.511719 83.796875 286.40625 78.902344 286.40625 72.863281 C 286.40625 66.824219 281.511719 61.929688 275.476562 61.929688 Z M 275.476562 61.929688 " clip-rule="nonzero"/></clipPath><clipPath id="311224a1d7"><path d="M 98.554688 104.21875 L 328.476562 104.21875 L 328.476562 334.136719 L 98.554688 334.136719 Z M 98.554688 104.21875 " clip-rule="nonzero"/></clipPath><clipPath id="8d8f0797ea"><path d="M 213.515625 104.21875 C 150.023438 104.21875 98.554688 155.6875 98.554688 219.179688 C 98.554688 282.667969 150.023438 334.136719 213.515625 334.136719 C 277.003906 334.136719 328.476562 282.667969 328.476562 219.179688 C 328.476562 155.6875 277.003906 104.21875 213.515625 104.21875 Z M 213.515625 104.21875 " clip-rule="nonzero"/></clipPath><clipPath id="021f5e79b5"><path d="M 82.160156 83.796875 L 278.925781 83.796875 L 278.925781 280.5625 L 82.160156 280.5625 Z M 82.160156 83.796875 " clip-rule="nonzero"/></clipPath><clipPath id="ea8b1ab36f"><path d="M 180.542969 83.796875 C 126.207031 83.796875 82.160156 127.84375 82.160156 182.179688 C 82.160156 236.511719 126.207031 280.5625 180.542969 280.5625 C 234.878906 280.5625 278.925781 236.511719 278.925781 182.179688 C 278.925781 127.84375 234.878906 83.796875 180.542969 83.796875 Z M 180.542969 83.796875 " clip-rule="nonzero"/></clipPath><clipPath id="ba7f22a557"><path d="M 95.554688 45.824219 L 256.574219 45.824219 L 256.574219 206.847656 L 95.554688 206.847656 Z M 95.554688 45.824219 " clip-rule="nonzero"/></clipPath><clipPath id="8e6e38556b"><path d="M 176.0625 45.824219 C 131.601562 45.824219 95.554688 81.871094 95.554688 126.335938 C 95.554688 170.800781 131.601562 206.847656 176.0625 206.847656 C 220.527344 206.847656 256.574219 170.800781 256.574219 126.335938 C 256.574219 81.871094 220.527344 45.824219 176.0625 45.824219 Z M 176.0625 45.824219 " clip-rule="nonzero"/></clipPath><clipPath id="435d607222"><path d="M 198.640625 100.347656 L 338.464844 100.347656 L 338.464844 240.167969 L 198.640625 240.167969 Z M 198.640625 100.347656 " clip-rule="nonzero"/></clipPath><clipPath id="2069c0383d"><path d="M 268.550781 100.347656 C 229.941406 100.347656 198.640625 131.648438 198.640625 170.257812 C 198.640625 208.871094 229.941406 240.167969 268.550781 240.167969 C 307.164062 240.167969 338.464844 208.871094 338.464844 170.257812 C 338.464844 131.648438 307.164062 100.347656 268.550781 100.347656 Z M 268.550781 100.347656 " clip-rule="nonzero"/></clipPath><clipPath id="fc568a6eff"><path d="M 64.207031 137.40625 L 263.15625 137.40625 L 263.15625 336.355469 L 64.207031 336.355469 Z M 64.207031 137.40625 " clip-rule="nonzero"/></clipPath><clipPath id="8fe936016f"><path d="M 163.683594 137.40625 C 108.742188 137.40625 64.207031 181.941406 64.207031 236.878906 C 64.207031 291.816406 108.742188 336.355469 163.683594 336.355469 C 218.621094 336.355469 263.15625 291.816406 263.15625 236.878906 C 263.15625 181.941406 218.621094 137.40625 163.683594 137.40625 Z M 163.683594 137.40625 " clip-rule="nonzero"/></clipPath><clipPath id="5d18fef4d5"><path d="M 88.9375 104.519531 L 318.554688 104.519531 L 318.554688 334.136719 L 88.9375 334.136719 Z M 88.9375 104.519531 " clip-rule="nonzero"/></clipPath><clipPath id="a4d4b54e36"><path d="M 203.746094 104.519531 C 140.339844 104.519531 88.9375 155.921875 88.9375 219.328125 C 88.9375 282.738281 140.339844 334.136719 203.746094 334.136719 C 267.152344 334.136719 318.554688 282.738281 318.554688 219.328125 C 318.554688 155.921875 267.152344 104.519531 203.746094 104.519531 Z M 203.746094 104.519531 " clip-rule="nonzero"/></clipPath><clipPath id="22ad1aebc9"><path d="M 141.175781 156.609375 L 266.3125 156.609375 L 266.3125 281.746094 L 141.175781 281.746094 Z M 141.175781 156.609375 " clip-rule="nonzero"/></clipPath><clipPath id="0bd5950394"><path d="M 203.746094 156.609375 C 169.191406 156.609375 141.175781 184.621094 141.175781 219.179688 C 141.175781 253.734375 169.191406 281.746094 203.746094 281.746094 C 238.300781 281.746094 266.3125 253.734375 266.3125 219.179688 C 266.3125 184.621094 238.300781 156.609375 203.746094 156.609375 Z M 203.746094 156.609375 " clip-rule="nonzero"/></clipPath><clipPath id="dc6b88b21c"><path d="M 147.6875 162.707031 L 259.800781 162.707031 L 259.800781 274.820312 L 147.6875 274.820312 Z M 147.6875 162.707031 " clip-rule="nonzero"/></clipPath><clipPath id="87c6e2dcfc"><path d="M 203.746094 162.707031 C 172.785156 162.707031 147.6875 187.804688 147.6875 218.761719 C 147.6875 249.722656 172.785156 274.820312 203.746094 274.820312 C 234.703125 274.820312 259.800781 249.722656 259.800781 218.761719 C 259.800781 187.804688 234.703125 162.707031 203.746094 162.707031 Z M 203.746094 162.707031 " clip-rule="nonzero"/></clipPath></defs><g clip-path="url(#a6d9de4df3)"><g clip-path="url(#51f097cce3)"><path fill="#004aad" d="M 229.609375 3.351562 L 273.582031 3.351562 L 273.582031 47.324219 L 229.609375 47.324219 Z M 229.609375 3.351562 " fill-opacity="1" fill-rule="nonzero"/></g></g><g clip-path="url(#b3ad32257d)"><g clip-path="url(#70ca7556d3)"><path fill="#cd5e6a" d="M 36.535156 117.992188 L 75.363281 117.992188 L 75.363281 156.816406 L 36.535156 156.816406 Z M 36.535156 117.992188 " fill-opacity="1" fill-rule="nonzero"/></g></g><g clip-path="url(#241f0e5207)"><g clip-path="url(#d76afdab61)"><path fill="#d09b4b" d="M 254.972656 345.441406 L 278.925781 345.441406 L 278.925781 369.398438 L 254.972656 369.398438 Z M 254.972656 345.441406 " fill-opacity="1" fill-rule="nonzero"/></g></g><g clip-path="url(#16f155c8a7)"><g clip-path="url(#654305ad37)"><path fill="#543db7" d="M 146.84375 354.628906 L 163.863281 354.628906 L 163.863281 371.648438 L 146.84375 371.648438 Z M 146.84375 354.628906 " fill-opacity="1" fill-rule="nonzero"/></g></g><g clip-path="url(#c6fde2f8fd)"><g clip-path="url(#5c4e473198)"><path fill="#cd5e6a" d="M 264.542969 61.929688 L 286.40625 61.929688 L 286.40625 83.796875 L 264.542969 83.796875 Z M 264.542969 61.929688 " fill-opacity="1" fill-rule="nonzero"/></g></g><g clip-path="url(#311224a1d7)"><g clip-path="url(#8d8f0797ea)"><path fill="#004aad" d="M 98.554688 104.21875 L 328.476562 104.21875 L 328.476562 334.136719 L 98.554688 334.136719 Z M 98.554688 104.21875 " fill-opacity="1" fill-rule="nonzero"/></g></g><g clip-path="url(#021f5e79b5)"><g clip-path="url(#ea8b1ab36f)"><path fill="#004aad" d="M 82.160156 83.796875 L 278.925781 83.796875 L 278.925781 280.5625 L 82.160156 280.5625 Z M 82.160156 83.796875 " fill-opacity="1" fill-rule="nonzero"/></g></g><g clip-path="url(#ba7f22a557)"><g clip-path="url(#8e6e38556b)"><path fill="#d09b4b" d="M 95.554688 45.824219 L 256.574219 45.824219 L 256.574219 206.847656 L 95.554688 206.847656 Z M 95.554688 45.824219 " fill-opacity="1" fill-rule="nonzero"/></g></g><g clip-path="url(#435d607222)"><g clip-path="url(#2069c0383d)"><path fill="#cd5e6a" d="M 198.640625 100.347656 L 338.464844 100.347656 L 338.464844 240.167969 L 198.640625 240.167969 Z M 198.640625 100.347656 " fill-opacity="1" fill-rule="nonzero"/></g></g><g clip-path="url(#fc568a6eff)"><g clip-path="url(#8fe936016f)"><path fill="#543db7" d="M 64.207031 137.40625 L 263.15625 137.40625 L 263.15625 336.355469 L 64.207031 336.355469 Z M 64.207031 137.40625 " fill-opacity="1" fill-rule="nonzero"/></g></g><g clip-path="url(#5d18fef4d5)"><g clip-path="url(#a4d4b54e36)"><path fill="#ffffff" d="M 88.9375 104.519531 L 318.554688 104.519531 L 318.554688 334.136719 L 88.9375 334.136719 Z M 88.9375 104.519531 " fill-opacity="1" fill-rule="nonzero"/></g></g><g clip-path="url(#22ad1aebc9)"><g clip-path="url(#0bd5950394)"><path fill="#488a67" d="M 141.175781 156.609375 L 266.3125 156.609375 L 266.3125 281.746094 L 141.175781 281.746094 Z M 141.175781 156.609375 " fill-opacity="1" fill-rule="nonzero"/></g></g><g clip-path="url(#dc6b88b21c)"><g clip-path="url(#87c6e2dcfc)"><path fill="#f9fbfa" d="M 147.6875 162.707031 L 259.800781 162.707031 L 259.800781 274.820312 L 147.6875 274.820312 Z M 147.6875 162.707031 " fill-opacity="1" fill-rule="nonzero"/></g></g><path stroke-linecap="round" transform="matrix(0.75, -0.00000000000000093, 0.00000000000000093, 0.75, 170.410599, 214.435124)" fill="none" stroke-linejoin="miter" d="M 4.49941 4.497961 L 84.39004 4.497961 " stroke="#488a67" stroke-width="9" stroke-opacity="1" stroke-miterlimit="4"/><path stroke-linecap="round" transform="matrix(0, 0.75, -0.75, 0, 208.400146, 184.436765)" fill="none" stroke-linejoin="miter" d="M 4.500981 4.502278 L 85.881194 4.502278 " stroke="#488a67" stroke-width="9" stroke-opacity="1" stroke-miterlimit="4"/></svg>